# xmcd
#
# Track frame offsets: 
#        150
#        16335
#        34365
#        48954
#        66110
#        81820
#        97280
#
# Disc length: 1565 seconds
#
# Revision: 0
# Processed by: cddbd v1.5.2PL0 Copyright (c) Steve Scherf et al.
# Submitted via: ExactAudioCopy v1.0b3
#
DISCID=58061b07
DTITLE=Roger Creager - Road Show
DYEAR=2014
DGENRE=Country
TTITLE0=Road Show
TTITLE1=Where The Gringos Don't Go
TTITLE2=River Song
TTITLE3=Different Than I'm Feeling Right Now
TTITLE4=I Love You When I'm Drunk
TTITLE5=Forever In Your Eyes
TTITLE6=A Little Bit Of Them All
EXTD=
EXTT0=
EXTT1=
EXTT2=
EXTT3=
EXTT4=
EXTT5=
EXTT6=
PLAYORDER=
